<svg width="22" height="22" viewBox="0 0 22 22" fill="none" xmlns="http://www.w3.org/2000/svg">
<path d="M20 0H2C0.895 0 0 0.895 0 2V20C0 21.105 0.895 22 2 22H20C21.105 22 22 21.105 22 20V2C22 0.895 21.105 0 20 0ZM16.68 7.989C16.686 8.119 16.689 8.25 16.689 8.381C16.689 12.384 13.642 17 8.07 17C6.359 17 4.767 16.499 3.426 15.639C3.663 15.667 3.905 15.681 4.149 15.681C5.568 15.681 6.874 15.197 7.911 14.384C6.585 14.359 5.467 13.483 5.081 12.28C5.266 12.315 5.456 12.334 5.651 12.334C5.928 12.334 6.195 12.297 6.45 12.228C5.064 11.95 4.02 10.726 4.02 9.258C4.02 9.245 4.02 9.233 4.02 9.22C4.429 9.447 4.895 9.583 5.392 9.599C4.579 9.056 4.045 8.129 4.045 7.078C4.045 6.522 4.195 6.002 4.455 5.555C5.949 7.388 8.181 8.594 10.699 8.72C10.648 8.499 10.621 8.267 10.621 8.03C10.621 6.357 11.978 5.001 13.65 5.001C14.521 5.001 15.309 5.369 15.861 5.958C16.551 5.822 17.2 5.57 17.785 5.223C17.559 5.93 17.079 6.524 16.453 6.899C17.066 6.826 17.65 6.663 18.193 6.422C17.786 7.028 17.272 7.561 16.68 7.989Z" fill="#333333"/>
</svg>
