<svg width="28" height="16" viewBox="0 0 28 16" fill="none" xmlns="http://www.w3.org/2000/svg">
<path d="M2.00008 -2.2063e-05C1.86757 -0.00189611 1.73601 0.0225852 1.61304 0.071999C1.49007 0.121413 1.37815 0.194773 1.28378 0.287818C1.18941 0.380862 1.11447 0.491735 1.06333 0.613992C1.01218 0.736249 0.98584 0.867453 0.98584 0.999978C0.98584 1.1325 1.01218 1.26371 1.06333 1.38596C1.11447 1.50822 1.18941 1.61909 1.28378 1.71214C1.37815 1.80518 1.49007 1.87854 1.61304 1.92796C1.73601 1.97737 1.86757 2.00185 2.00008 1.99998H26.0001C26.1326 2.00185 26.2642 1.97737 26.3871 1.92796C26.5101 1.87854 26.622 1.80518 26.7164 1.71214C26.8108 1.61909 26.8857 1.50822 26.9368 1.38596C26.988 1.26371 27.0143 1.1325 27.0143 0.999978C27.0143 0.867453 26.988 0.736249 26.9368 0.613992C26.8857 0.491735 26.8108 0.380862 26.7164 0.287818C26.622 0.194773 26.5101 0.121413 26.3871 0.071999C26.2642 0.0225852 26.1326 -0.00189611 26.0001 -2.2063e-05H2.00008ZM2.00008 6.99998C1.86757 6.9981 1.73601 7.02259 1.61304 7.072C1.49007 7.12141 1.37815 7.19477 1.28378 7.28782C1.18941 7.38086 1.11447 7.49174 1.06333 7.61399C1.01218 7.73625 0.98584 7.86745 0.98584 7.99998C0.98584 8.1325 1.01218 8.26371 1.06333 8.38597C1.11447 8.50822 1.18941 8.61909 1.28378 8.71214C1.37815 8.80518 1.49007 8.87854 1.61304 8.92796C1.73601 8.97737 1.86757 9.00185 2.00008 8.99998H26.0001C26.1326 9.00185 26.2642 8.97737 26.3871 8.92796C26.5101 8.87854 26.622 8.80518 26.7164 8.71214C26.8108 8.61909 26.8857 8.50822 26.9368 8.38597C26.988 8.26371 27.0143 8.1325 27.0143 7.99998C27.0143 7.86745 26.988 7.73625 26.9368 7.61399C26.8857 7.49174 26.8108 7.38086 26.7164 7.28782C26.622 7.19477 26.5101 7.12141 26.3871 7.072C26.2642 7.02259 26.1326 6.9981 26.0001 6.99998H2.00008ZM2.00008 14C1.86757 13.9981 1.73601 14.0226 1.61304 14.072C1.49007 14.1214 1.37815 14.1948 1.28378 14.2878C1.18941 14.3809 1.11447 14.4917 1.06333 14.614C1.01218 14.7363 0.98584 14.8675 0.98584 15C0.98584 15.1325 1.01218 15.2637 1.06333 15.386C1.11447 15.5082 1.18941 15.6191 1.28378 15.7121C1.37815 15.8052 1.49007 15.8785 1.61304 15.928C1.73601 15.9774 1.86757 16.0019 2.00008 16H26.0001C26.1326 16.0019 26.2642 15.9774 26.3871 15.928C26.5101 15.8785 26.622 15.8052 26.7164 15.7121C26.8108 15.6191 26.8857 15.5082 26.9368 15.386C26.988 15.2637 27.0143 15.1325 27.0143 15C27.0143 14.8675 26.988 14.7363 26.9368 14.614C26.8857 14.4917 26.8108 14.3809 26.7164 14.2878C26.622 14.1948 26.5101 14.1214 26.3871 14.072C26.2642 14.0226 26.1326 13.9981 26.0001 14H2.00008Z" fill="#333333"/>
</svg>
